# xmcd
# 
# Track frame offsets:
#     150
#     19857
#     40855
#     62927
#     85375
#     103440
#     122260
#     150022
#     173377
# 
# Disc length: 2704
# 
# Revision: 0
# Processed by: cddbd v1.5.2PL0 Copyright (c) Steve Scherf et al.
# Submitted via: fre:ac v1.0.31
# 
DISCID=630a8e09
DTITLE=中島 みゆき - Goodbye Girl
DYEAR=1988
DGENRE=J-POP
TTITLE0=01-野ウサギのように
TTITLE1=02-ふらふら
TTITLE2=03-MEGAMI
TTITLE3=04-気にしないで
TTITLE4=05-十二月
TTITLE5=06-たとえ世界が空から落ちても
TTITLE6=07-愛よりも
TTITLE7=08-涙 - Made in tears -
TTITLE8=09-吹雪
EXTD=YEAR: 1988\nアルバム名：グッバイガール
EXTT0=
EXTT1=
EXTT2=
EXTT3=
EXTT4=
EXTT5=
EXTT6=
EXTT7=
EXTT8=
PLAYORDER=
